<?xml version="1.0" standalone="no"?>
<!DOCTYPE svg PUBLIC "-//W3C//DTD SVG 20010904//EN"
 "http://www.w3.org/TR/2001/REC-SVG-20010904/DTD/svg10.dtd">
<svg version="1.0" xmlns="http://www.w3.org/2000/svg"
 width="540.000000pt" height="540.000000pt" viewBox="0 0 540.000000 540.000000"
 preserveAspectRatio="xMidYMid meet">
<metadata>
Created by potrace 1.11, written by Peter Selinger 2001-2013
</metadata>
<g transform="translate(0.000000,540.000000) scale(0.100000,-0.100000)"
fill="#000000" stroke="none">
<path d="M592 4748 c-100 -8 -168 -29 -245 -75 -134 -81 -225 -223 -254 -398
-5 -27 -8 -752 -8 -1610 1 -1703 -2 -1608 61 -1740 71 -150 204 -245 409 -292
32 -7 4244 -6 4307 1 245 29 431 221 466 481 4 33 7 758 7 1610 -1 1261 -4
1560 -14 1605 -40 162 -129 276 -273 352 -143 75 35 69 -2289 71 -1146 1
-2121 -1 -2167 -5z m243 -650 c0 -180 -3 -279 -10 -281 -5 -2 -89 -3 -185 -3
l-175 1 -3 190 c-4 219 5 279 47 319 44 42 92 54 216 52 l110 -1 0 -277z
m3375 -1408 l0 -1687 -1500 0 -1500 0 0 1687 0 1687 1500 0 1500 0 0 -1687z
m667 1660 c75 -42 81 -67 83 -319 l1 -216 -188 0 -188 0 0 275 c-1 151 0 278
2 281 1 4 58 6 125 5 109 -1 128 -4 165 -26z m-4042 -1190 l0 -280 -30 -1
c-40 -1 -283 -1 -317 0 l-28 1 0 280 0 280 188 0 187 0 0 -280z m4125 0 c0
-260 -1 -280 -17 -281 -22 -1 -311 -1 -338 0 -20 1 -20 7 -19 278 1 153 2 279
3 281 0 1 84 2 186 2 l185 0 0 -280z m-4130 -659 c3 -1 5 -126 5 -278 l0 -278
-187 -3 -188 -2 0 279 c0 177 4 281 10 283 8 2 337 1 360 -1z m4113 0 c16 -1
17 -21 17 -281 l0 -280 -188 0 -187 0 0 278 c0 152 3 279 6 282 6 4 233 4 352
1z m-4108 -1216 l0 -280 -119 -1 c-105 0 -125 2 -165 23 -81 40 -86 54 -89
313 l-3 225 188 0 188 0 0 -280z m4120 54 l0 -226 -29 -37 c-45 -60 -86 -73
-223 -72 l-118 1 0 275 c0 151 3 277 7 280 3 3 87 5 185 5 l178 0 0 -226z"/>
<path d="M1925 3810 c-77 -18 -124 -62 -144 -135 -14 -55 -14 -1914 0 -1970
14 -54 50 -98 96 -120 43 -21 119 -23 154 -5 22 11 412 253 1009 626 118 74
222 138 230 143 136 84 296 188 319 207 34 28 65 109 58 151 -7 42 -32 96 -54
116 -24 21 -1455 918 -1528 957 -57 32 -97 40 -140 30z m640 -782 c33 -21 167
-105 297 -186 131 -81 238 -149 238 -152 0 -3 -38 -27 -83 -54 -45 -28 -84
-53 -87 -56 -3 -3 -49 -33 -103 -65 -126 -77 -104 -63 -408 -253 -143 -90
-263 -161 -266 -159 -4 4 -5 568 -3 1139 l0 47 178 -111 c97 -61 204 -129 237
-150z"/>
</g>
</svg>
